<?xml version="1.0" encoding="UTF-8" standalone="no"?>
<svg
   xmlns:dc="http://purl.org/dc/elements/1.1/"
   xmlns:cc="http://creativecommons.org/ns#"
   xmlns:rdf="http://www.w3.org/1999/02/22-rdf-syntax-ns#"
   xmlns:svg="http://www.w3.org/2000/svg"
   xmlns="http://www.w3.org/2000/svg"
   xml:space="preserve"
   height="885.9"
   width="885.9025"
   version="1.1"
   id="svg3004"><metadata
     id="metadata3010"><rdf:RDF><cc:Work
         rdf:about=""><dc:format>image/svg+xml</dc:format><dc:type
           rdf:resource="http://purl.org/dc/dcmitype/StillImage" /><dc:title></dc:title></cc:Work></rdf:RDF></metadata><defs
     id="defs3008"><clipPath
       id="clipPath3018"
       clipPathUnits="userSpaceOnUse"><path
         id="path3020"
         d="m 0,977.953 1388.976,0 L 1388.976,0 0,0 0,977.953 z" /></clipPath></defs><g
     transform="matrix(1.25,0,0,-1.25,-425.16,1054.17)"
     id="g3012"><g
       id="g3014"><rect
         transform="scale(1,-1)"
         y="-847.32214"
         x="335.26544"
         height="720"
         width="720"
         id="rect4668"
         style="opacity:1;fill:#566277;fill-opacity:0;stroke:none;stroke-width:1.60000002;stroke-miterlimit:4;stroke-dasharray:none;stroke-opacity:1" /><path
         id="path3022"
         d="M 1046.3678,801.03924 C 976.53484,766.15606 856.45493,704.22386 798.68751,674.05316 c -3.9912,12.76945 -0.86848,25.74794 0.0374,40.90047 -5.07944,-0.68668 -9.78112,-4.79419 -14.49554,-7.9687 -7.02095,-4.73085 -14.15292,-8.79892 -16.21545,-17.47201 l -36.56589,9.4106 c -0.64003,0.27115 -1.27482,0.54811 -1.91777,0.81632 -1.81824,4.74522 -2.80037,10.12373 -3.62165,16.30278 -0.78365,5.89161 -0.20882,12.62013 -1.81261,18.11363 l -1.44903,0 c -16.0219,-6.96382 -26.45818,-19.52142 -35.76919,-33.19732 -133.4089,76.48665 -221.12347,1.09877 -256.64917,-41.38703 -7.868,-9.20877 -14.97658,-19.24841 -21.21841,-30.14601 -93.74551,-156.94497 17.45141,-253.22458 69.62061,-287.38156 6.23329,-4.66302 10.36414,-7.56414 10.36414,-7.56414 0,0 3.38161,-1.47235 8.92403,-3.98523 3.07969,-1.65564 4.87996,-2.51841 4.87996,-2.51841 -0.10916,0.14593 -0.21207,0.28916 -0.32081,0.43489 32.57366,-14.97336 117.54627,-56.07251 172.71303,-101.42062 6.71176,-5.51632 41.56841,-32.77911 36.22547,-65.20405 4.30492,7.84901 6.47051,17.08444 7.97049,26.80417 1.50571,9.72885 17.74739,98.95126 -28.98393,159.75742 -5.06576,6.59655 -10.01381,13.50743 -14.12481,20.64808 -6.58857,11.45355 -10.7395,29.37568 -13.40299,46.00678 -1.14638,7.16688 -1.27755,18.04803 0,26.08412 2.11027,13.26951 9.62077,21.20151 16.66105,30.79119 6.87943,9.36156 12.67059,19.22635 20.28804,27.16776 16.25125,-13.33111 52.45833,-11.68562 80.42321,-9.77955 12.14367,-9.59196 29.27831,-14.19252 45.28317,-19.92443 6.18704,-5.55169 14.70912,-9.7578 23.54254,-14.1266 8.17867,-4.04599 16.42121,-9.18347 25.72232,-12.31576 9.18131,-3.09466 20.29574,-5.20235 30.43295,-6.52326 9.80984,-1.27985 27.30378,-4.68278 36.58549,0.36358 7.21821,3.92509 6.281,13.41304 -0.36003,16.66283 -12.69233,6.20758 -35.64906,4.16939 -43.47412,13.76479 19.24896,2.39884 38.06702,-4.7525 56.15705,-6.88328 16.12805,-1.89809 20.1935,6.88819 23.54253,18.11362 5.13762,17.24478 14.99979,42.31348 15.93742,48.9066 0.93878,6.59312 1.91464,10.86675 -5.43247,10.86675 -7.34825,0 -11.02366,-3.41869 -17.0282,-5.43427 -4.21367,-1.41672 -12.6733,-5.64693 -17.01928,-5.43248 -2.75816,0.13346 -6.92236,2.55143 -10.51208,3.98526 -3.47108,1.38364 -6.73849,3.48833 -9.77954,4.70886 -11.03949,4.42355 -18.84343,10.70676 -28.61677,14.85199 -10.28436,4.36195 -20.35549,9.16814 -31.15658,12.31755 -6.19503,4.28211 -10.51713,8.06958 -15.21559,14.12659 -2.77413,3.57831 -5.89816,6.7961 -7.6069,10.50673 -6.27145,13.61742 -7.9779,30.36622 -15.94098,43.10873 -2.90531,1.98821 -5.39327,3.72098 -8.33052,5.43428 -2.91102,1.69962 -6.66593,2.7298 -9.41952,4.70887 -2.26843,1.63307 -4.69052,4.69355 -6.81378,7.61225 77.54984,49.90383 236.5269,151.56633 235.623,152.3733 z M 686.81543,700.86803 c -0.0103,-0.0145 -0.0205,-0.0283 -0.0303,-0.0428 -0.0192,0.0114 -0.0395,0.0211 -0.0588,0.0321 0.007,6.8e-4 0.0843,0.0103 0.0891,0.0103 z"
         style="fill:#44444a;fill-opacity:1;fill-rule:evenodd;stroke:none" /></g></g></svg>